# xmcd
#
# Track frame offsets:
#       150
#       16425
#       32805
#       57141
#       98227
#       110175
#       130220
#       166068
#       185850
#       200328
#       223298
#       240637
#       252282
#       271087
#       296091
#       317165
#       329713
#
# Disc length: 4691 seconds
#
# Revision: 1
# Processed by: cddbd v1.5.2PL0 Copyright (c) Steve Scherf et al.
# Submitted via: FreeDbEdit v0.1
#
DISCID=0b125111
DTITLE=Various Artist - 1000 Original Hits - Jazz
DYEAR=1900
DGENRE=Jazz
TTITLE0=Glenn Miller - In the Mood
TTITLE1=Louis Armstrong - Go Down Moses
TTITLE2=Stan Gets and Antonio Jobim - Garota De Ipanema
TTITLE3=Dave Brubeck - Take Five
TTITLE4=Frank Sinatra and Antonio Jobim - I Concentrate on You
TTITLE5=Group 3 - Uncle Darrows
TTITLE6=Jimmy Smith - Watermelon Man
TTITLE7=Louis Prima and His Band - I Wanna Be Like You
TTITLE8=Michel Petrucciani - Besame Mucho
TTITLE9=Nelson Rangell - Reasons
TTITLE10=Al Jarreau - Since I Feel for You
TTITLE11=Ray Charles - Baby Don't You Cry
TTITLE12=New York Voices - Oh, Lady Be Good
TTITLE13=Dave Koz - In the Name of Love
TTITLE14=Gerald Albright - Creepin
TTITLE15=Dinah Washington - Mad About the Boy
TTITLE16=E.Fitzgerald and L.Armstrong - Summertime
EXTD=
EXTT0=
EXTT1=
EXTT2=
EXTT3=
EXTT4=
EXTT5=
EXTT6=
EXTT7=
EXTT8=
EXTT9=
EXTT10=
EXTT11=
EXTT12=
EXTT13=
EXTT14=
EXTT15=
EXTT16=
PLAYORDER=
